<svg viewBox="0 0 38 38" xmlns="http://www.w3.org/2000/svg" xmlns:xlink="http://www.w3.org/1999/xlink" width="38.000000" height="38.000000" fill="none" customFrame="#000000">
	<g id="linkedIn">
		<path id="Vector" d="M35.2857 0L2.7058 0C1.21295 0 0 1.22991 0 2.73973L0 35.2603C0 36.7701 1.21295 38 2.7058 38L35.2857 38C36.7786 38 38 36.7701 38 35.2603L38 2.73973C38 1.22991 36.7786 0 35.2857 0ZM11.4848 32.5714L5.85268 32.5714L5.85268 14.4366L11.4933 14.4366L11.4933 32.5714L11.4848 32.5714ZM8.66875 11.9598C6.86205 11.9598 5.40312 10.4924 5.40312 8.6942C5.40312 6.89598 6.86205 5.42857 8.66875 5.42857C10.467 5.42857 11.9344 6.89598 11.9344 8.6942C11.9344 10.5009 10.4754 11.9598 8.66875 11.9598ZM32.5969 32.5714L26.9647 32.5714L26.9647 23.75C26.9647 21.6464 26.9223 18.9406 24.0384 18.9406C21.1036 18.9406 20.654 21.2308 20.654 23.5973L20.654 32.5714L15.0219 32.5714L15.0219 14.4366L20.425 14.4366L20.425 16.9134L20.5013 16.9134C21.2563 15.4884 23.0969 13.9871 25.8366 13.9871C31.5366 13.9871 32.5969 17.7446 32.5969 22.6304L32.5969 32.5714Z" fill="rgb(255,255,255)" fill-rule="nonzero" />
	</g>
</svg>
